<svg xmlns="http://www.w3.org/2000/svg" version="1.1" xmlns:xlink="http://www.w3.org/1999/xlink" xmlns:svgjs="http://svgjs.com/svgjs" width="1440" height="560" preserveAspectRatio="none" viewBox="0 0 1440 560"><g mask="url(&quot;#SvgjsMask1006&quot;)" fill="none"><rect width="1440" height="560" x="0" y="0" fill="rgba(29, 79, 229, 1)"></rect><path d="M0,333.173C60.132,321.237,99.323,267.301,154.125,239.823C217.96,207.816,314.034,221.761,347.752,158.813C381.014,96.717,327.816,23.015,306.167,-44.02C288.024,-100.198,263.81,-151.217,231.639,-200.716C194.563,-257.762,167.829,-330.769,104.181,-354.807C39.983,-379.053,-31.032,-348.53,-95.178,-324.147C-155.432,-301.244,-209.874,-267.139,-252.848,-219.094C-296.314,-170.499,-327.9,-112.882,-341.234,-49.062C-355.16,17.589,-355.174,87.448,-330.125,150.763C-304.327,215.971,-260.574,276.039,-199.195,309.954C-139.475,342.952,-66.924,346.457,0,333.173" fill="#153eb9"></path><path d="M1440 1040.388C1535.412 1029.737 1636.945 1044.022 1718.141 992.7950000000001 1799.603 941.4010000000001 1839.498 848.299 1881.7 761.718 1924.909 673.072 1955.844 582.475 1965.9569999999999 484.379 1978.688 360.88800000000003 2037.3690000000001 205.96300000000002 1947.864 119.93299999999999 1855.878 31.51800000000003 1699.088 126.80399999999997 1573.084 106.75900000000001 1469.617 90.29899999999998 1384.336 13.625 1279.568 13.618000000000052 1152.172 13.609000000000037 1013.803 24.035999999999945 916.878 106.71199999999999 815.899 192.846 747.614 328.905 754.554 461.448 761.265 589.623 885.516 673.113 952.274 782.737 1009.466 876.653 1021.6410000000001 1008.329 1118.868 1059.691 1215.648 1110.817 1331.222 1052.531 1440 1040.388" fill="#4b73ea"></path></g><defs><mask id="SvgjsMask1006"><rect width="1440" height="560" fill="#ffffff"></rect></mask></defs></svg>